<svg id="Ebene_1" data-name="Ebene 1" xmlns="http://www.w3.org/2000/svg" viewBox="0 0 860.58 130.59"><defs><style>.cls-1{fill:#1fafe3;}.cls-2{fill:#fff;}</style></defs><title>TruckJobs</title><path class="cls-1" d="M659.23,129.49a17.6,17.6,0,0,1-6.3,8.14,49,49,0,0,1-11.81,6l-2.1-5.77c3.93-1.84,6.82-3.41,8.92-5.25a13.56,13.56,0,0,0,4.2-6.56,35.09,35.09,0,0,0,1.05-10V40.5h7.61v76.12C661.07,121.87,660.54,126.08,659.23,129.49Z" transform="translate(-49.88 -19.46)"/><path class="cls-1" d="M739.82,44.17c5.51,3.41,9.71,8.66,12.6,15.49s4.46,15.23,4.46,24.68-1.57,17.58-4.46,24.41-7.09,12.07-12.6,15.49c-5.51,3.67-11.81,5.25-18.9,5.25a33.73,33.73,0,0,1-18.64-5.25c-5.51-3.42-9.71-8.67-12.6-15.49s-4.46-15-4.46-24.41,1.57-17.59,4.46-24.42a34.56,34.56,0,0,1,12.6-15.75,32.48,32.48,0,0,1,18.64-5.51C728.27,39.18,734.57,40.76,739.82,44.17ZM700.71,55.46c-5,6.56-7.35,16.27-7.35,29.14S696,106.91,701,113.47s11.81,9.72,20.21,9.72c8.93,0,15.75-3.15,20.48-9.72,5-6.56,7.35-16.27,7.35-29.13,0-13.13-2.36-22.84-7.35-29.14-5-6.57-11.81-9.72-20.48-9.72C712.52,45.75,705.69,48.9,700.71,55.46Z" transform="translate(-49.88 -19.46)"/><path class="cls-1" d="M830.13,88.27C833.8,92,835.9,97.2,835.9,104c0,8.14-2.89,14.44-8.4,18.38s-13.39,6-23.36,6H780.25V40.5h19.69q15.34,0,23.62,5.51c5.52,3.67,8.4,9.19,8.4,16.54,0,5.51-1.57,9.71-4.46,13.12A18.63,18.63,0,0,1,815.69,82,23,23,0,0,1,830.13,88.27Zm-42.27-9.18h17.59c5.51,0,10-1.32,13.12-4.2,3.42-2.89,5-6.83,5-11.82,0-5.77-1.84-9.71-5.77-12.34-3.94-2.36-9.72-3.67-17.33-3.67h-12.6ZM827.76,104c0-6.3-1.83-11-5.77-14.17s-8.93-4.73-15.49-4.73H787.86v36.75h16.28C819.89,122.14,827.76,116.1,827.76,104Z" transform="translate(-49.88 -19.46)"/><path class="cls-1" d="M896.54,41.55a36,36,0,0,1,11.29,7.35l-4.73,5a34.27,34.27,0,0,0-9.71-6.3,28.11,28.11,0,0,0-10.76-1.83c-5.51,0-10,1.31-13.13,3.93a12.87,12.87,0,0,0-5,10.77,13.67,13.67,0,0,0,1.84,7.61,16.41,16.41,0,0,0,6.3,5.51A68,68,0,0,0,885,78.3a75.25,75.25,0,0,1,14.18,5.77,24.36,24.36,0,0,1,8.4,7.88,24.58,24.58,0,0,1,2.88,12.34,24,24,0,0,1-3.67,13.12,22.75,22.75,0,0,1-10.24,8.93,35.06,35.06,0,0,1-15.22,3.15,39.46,39.46,0,0,1-28.09-11l4.72-5a37,37,0,0,0,10.5,7.09,32.1,32.1,0,0,0,12.87,2.37c6.3,0,11.55-1.58,15.48-5a17.15,17.15,0,0,0,6-13.65,18,18,0,0,0-2.1-8.93c-1.31-2.36-3.41-4.2-6.3-6a62.57,62.57,0,0,0-12.6-5c-8.92-2.63-15.49-5.78-19.16-9.45-3.94-3.68-5.78-8.41-5.78-14.71a19.39,19.39,0,0,1,3.15-11,20.29,20.29,0,0,1,9.19-7.61,31.3,31.3,0,0,1,13.39-2.89A51.67,51.67,0,0,1,896.54,41.55Z" transform="translate(-49.88 -19.46)"/><path class="cls-2" d="M257.32,55.72v73.51h-21V55.72H212.69V40H281V55.72Z" transform="translate(-49.88 -19.46)"/><path class="cls-2" d="M317.7,95.1v34.13h-21V40h29.4c12.07,0,21.26,2.1,27.3,6.56s9.19,11,9.19,20.22c0,5.77-1.31,10.5-4.2,14.17a32.36,32.36,0,0,1-12.86,10l22.57,38.33H344.48L326.36,95.1Zm9.19-15.75c4.72,0,8.13-.79,10.5-2.89s3.41-5.25,3.41-10c0-4.2-1.31-6.56-3.68-8.66-2.62-1.84-6.3-2.1-11.55-2.1H317.7V79.35Z" transform="translate(-49.88 -19.46)"/><path class="cls-2" d="M443.44,115.31a25.92,25.92,0,0,1-11.29,11.29,41,41,0,0,1-18.9,4.2c-11.28,0-20.21-2.89-26.25-8.66s-9.19-13.39-9.19-23.1V40h21V98c0,5.77,1.57,10,3.67,12.86s5.78,4.2,10.5,4.2,7.35-1.31,9.45-4.2,2.36-7.09,2.36-12.86V40h21V99C446.33,105.07,446.07,110.59,443.44,115.31Z" transform="translate(-49.88 -19.46)"/><path class="cls-2" d="M519.05,39.71a40.23,40.23,0,0,1,12.33,7.35L521.15,59.13c-5-4.2-10.24-6.3-16-6.3-6,0-10.5,2.63-14.17,7.62-3.41,5-5.25,12.86-5.25,23.36,0,10.24,1.84,18.11,5.25,23.1a16.8,16.8,0,0,0,14.44,7.61,19.05,19.05,0,0,0,8.66-1.83,58.33,58.33,0,0,0,8.66-5.52l9.45,12.34a40.68,40.68,0,0,1-12.07,8.14,38.39,38.39,0,0,1-15.75,3.15c-8.14,0-15.49-1.84-21.53-5.51a36.9,36.9,0,0,1-14.18-16c-3.41-7.08-5-15.48-5-25.46,0-9.71,1.83-18.11,5.25-24.94a36.74,36.74,0,0,1,14.17-16,38.85,38.85,0,0,1,20.74-5.51A45.15,45.15,0,0,1,519.05,39.71Z" transform="translate(-49.88 -19.46)"/><path class="cls-2" d="M546.09,129.23V40h21v89.26Zm75.86,0H597.54L569.19,81.71,597.54,40h22.31L591.5,80.14Z" transform="translate(-49.88 -19.46)"/><path class="cls-1" d="M172.79,53.1c6,9.71,9.19,30.71,7.35,44.62l-29.4-2.62a2.6,2.6,0,0,1-2.1-1.58c-.52-3.15-1.31-6-1.84-9.18-1.05-5-1.57-8.14-2.62-13.39,0-.53-.79-2.1,1-3.15l18.11-10.24a54.86,54.86,0,0,0-88.47-9.45,29,29,0,0,1-3.15,3.15L62.8,45.75c11-16.54,31-26,49.35-26.26,25.73-.78,48.83,12.34,60.64,33.61" transform="translate(-49.88 -19.46)"/><path class="cls-1" d="M122.13,71.47a40.89,40.89,0,0,1-6.57,2.37c-.26,0-.52.26-.78.52a13.49,13.49,0,0,1-8.67,5.51,6.42,6.42,0,0,1-5.25-1.31,1.4,1.4,0,0,1-.26-2.1c2.1-3.41,4.46-6.83,6.83-10.24a4.24,4.24,0,0,1,1.83-1c4.47-1.31,8.93-2.62,13.13-4.2a8.13,8.13,0,0,1,6.56.53c3.68,1.83,6.83,4.2,10.5,6a4.61,4.61,0,0,1,2.63,3.94c1.31,6.3,2.62,13.13,3.94,19.17a1.12,1.12,0,0,1-.27.78c-.52.27-.79,0-1.31-.26-3.15-2.62-6.3-5.51-9.71-7.87-4.2-2.89-7.88-5.78-11.82-8.93C122.13,73.84,121.08,73.05,122.13,71.47Z" transform="translate(-49.88 -19.46)"/><path class="cls-1" d="M113.2,100.61a3.84,3.84,0,0,1-.52,1.84c-2.37,2.36-5,4.72-7.35,7.09-1.32,1.31-3.15,1-4.47-.53,0-.26-.26-.26-.26-.52-1.31-2.1-1.31-2.1.53-3.68,2.62-2.1,5-4.46,7.61-6.56,1.05-1,1.84-.79,2.89-.26A4,4,0,0,1,113.2,100.61Z" transform="translate(-49.88 -19.46)"/><path class="cls-1" d="M109.26,114c-1.83,0-3.41-.53-3.93-2.1a.64.64,0,0,1,.26-1.05c2.36-2.36,4.72-4.46,6.82-6.83a5.78,5.78,0,0,1,1.58-1,2.7,2.7,0,0,1,3.94,2.89C117.66,108.49,112.15,114.52,109.26,114Z" transform="translate(-49.88 -19.46)"/><path class="cls-1" d="M94.82,103c0-.78,0-1.31.27-1.57,2.62-2.1,4.46-5,7.35-6.83,1.84-1.31,3.41-1,4.46.79a1.68,1.68,0,0,1-.26,2.36c-2.63,2.63-5.51,5-8.14,7.35a1.62,1.62,0,0,1-1.84.27A4.25,4.25,0,0,1,94.82,103Z" transform="translate(-49.88 -19.46)"/><path class="cls-1" d="M91.41,98.51a6.83,6.83,0,0,1,2.36-4.2,6.74,6.74,0,0,1,3.42-2.1,2.7,2.7,0,0,1,3.41,1.31c.26.53.26.79,0,1-2.1,2.1-4.2,4.2-6.56,6.3C93.25,101.4,91.41,100.09,91.41,98.51Z" transform="translate(-49.88 -19.46)"/><path class="cls-2" d="M116.35,111.11a14.12,14.12,0,0,0,2.63-4.2c.26-.52.52-.52.78-.26a33.64,33.64,0,0,1,3.94,2.62c.79.53.26,1-.26,1.58C121.6,112.69,118.71,112.69,116.35,111.11Z" transform="translate(-49.88 -19.46)"/><path class="cls-2" d="M116.35,95.89c1.05,1.31,8.4,5.77,13.13,9.18,2.36,1.84,3.41,2.1,2.1,3.15a5.58,5.58,0,0,1-6.83.79,35.39,35.39,0,0,1-3.94-2.62,4.06,4.06,0,0,1-1.83-2.63,3.41,3.41,0,0,0-3.42-2.62h-1.31a4.18,4.18,0,0,0-4.72-4.73c-.53,0-1,0-1-.79-.53-2.36-2.63-3.41-5-2.88-1,.26-1.58.26-2.1-.53-1-1.31-2.36-2.1-4.2-1.31A27.38,27.38,0,0,0,93.25,93c-.53.26-2.36,1.31-3.68.52-.52-.26-.26-.78-.26-1.31.79-5.51,1.84-11,2.63-16.8a7.31,7.31,0,0,1,3.93-6.3c3.68-2.36,6.83-5.25,10.51-7.35s7.35-1,11,0c-3.15,1.05-6,1.84-9.19,2.89a5.78,5.78,0,0,0-1.31.78,93,93,0,0,0-7.09,10.51,2.49,2.49,0,0,0,.53,3.41c2.36,2.1,5.25,2.1,8.14,1.31a16.66,16.66,0,0,0,7.61-5.25c.79-1,1.84-1,2.89-1.31,1.31-.26,2.1-.26,2.88.52,6.3,5.52,13.65,10,20,15.49a40.75,40.75,0,0,1,3.68,3.41,2,2,0,0,1,.26,2.63,17,17,0,0,1-2.62,3.41c-.79.79-1.58.79-2.63,0-2.89-2.1-5.77-4.46-8.92-6.3-1.84-1.05-3.15-2.1-5-3.15a6.15,6.15,0,0,0-1.31-.79.65.65,0,0,0-1,.27c-.27.26,0,.52.26.78,1.57,1,2.89,2.1,4.72,3.15,3.68,2.37,6.83,4.73,10.24,7.09.79.53,1.05,1,.26,2.1-1.31,1.84-2.88,3.41-5.25,3.41-1.83,0-2.88-1.31-4.2-2.1-3.93-2.88-11.55-7.87-12.33-8.4-.27-.26-.53-.26-.79-.52A.58.58,0,0,0,116.35,95.89Z" transform="translate(-49.88 -19.46)"/><path class="cls-2" d="M166.75,103.76c-2.88,8.4-4.2,10.5-10.5,17.59a54.82,54.82,0,0,1-77.44,4.2A55.63,55.63,0,0,1,62,97.2h0l23.1-.79a1.47,1.47,0,0,0,1.31-1.57c1.32-7.62,2.37-14.7,3.68-22.32a3.36,3.36,0,0,0-1-2.89L58.34,52.31A68.32,68.32,0,0,0,49.94,88a65.62,65.62,0,0,0,68.77,62c28.88-1.57,51.19-18.11,58.54-44.62Z" transform="translate(-49.88 -19.46)"/></svg>